<svg width="512" height="512" xmlns="http://www.w3.org/2000/svg" stroke="null" style="vector-effect: non-scaling-stroke;">

 <g stroke="null">
  <title stroke="null">Layer 1</title>
  <ellipse stroke="#000000" style="vector-effect: non-scaling-stroke;" ry="213.3715" rx="208.5" id="svg_11" cy="235.37149" cx="226.83497" stroke-width="0" fill="#000000"/>
  <ellipse stroke="#000000" ry="180.49999" rx="155.5" id="svg_12" cy="263.49999" cx="268.83496" stroke-width="0" fill="#ffffff"/>
  <path stroke="#000000" id="svg_6" d="m259.63319,33.79974c-115.15246,0 -208.49998,97.00218 -208.49998,216.66576c0,119.66107 93.34753,216.66583 208.49998,216.66583c115.15379,0 208.49998,-97.00476 208.49998,-216.66583c0,-119.66358 -93.34619,-216.66576 -208.49998,-216.66576zm18.00432,334.13454l0,30.51793l-28.08873,0l0,-30.17409c-46.09301,-6.55958 -66.29167,-45.91495 -66.29167,-45.91495l28.72061,-24.93924c0,0 18.30533,33.13957 51.44387,33.13957c18.30386,0 32.19141,-10.18184 32.19141,-27.56635c0,-40.68015 -105.42645,-35.74719 -105.42645,-111.19349c0,-32.7985 24.93244,-56.42691 59.34728,-62.00015l0,-30.51488l28.0899,0l0,30.498c23.98582,3.2812 52.39041,16.40051 52.39041,44.61846l0,21.6464l-37.24267,0l0,-10.49455c0,-10.82209 -13.26936,-18.03871 -28.10224,-18.03871c-18.93599,0 -32.8236,9.83838 -32.8236,23.6143c0,41.65019 105.42641,31.48487 105.42641,110.53967c0.01506,32.48255 -23.33986,60.68899 -59.63453,66.2621l0,-0.00002z" stroke-width="0" fill="#A98E49"/>
  <path stroke="#000000" id="svg_13" d="m408.21327,479.73997l0,0c0,-5.52284 4.70101,-9.99999 10.49999,-9.99999l0,0c2.78477,0 5.45549,1.05357 7.42461,2.92893c1.96913,1.87536 3.07538,4.4189 3.07538,7.07106l0,0c0,5.52284 -4.70101,9.99999 -10.49999,9.99999l0,0c-5.79898,0 -10.49999,-4.47715 -10.49999,-9.99999zm5.25,0l0,0c0,2.76142 2.35051,5 5.25,5c2.89949,0 5.25,-2.23858 5.25,-5c0,-2.76142 -2.3505,-5 -5.25,-5l0,0c-2.89949,0 -5.25,2.23858 -5.25,5z" stroke-width="0" fill="#000000"/>
  <path stroke="#000000" style="vector-effect: non-scaling-stroke;" id="svg_14" d="m457.21327,428.73997l0,0c0,-5.52285 4.70101,-10 10.49999,-10l0,0c2.78477,0 5.45549,1.05357 7.42462,2.92893c1.96913,1.87537 3.07538,4.4189 3.07538,7.07107l0,0c0,5.52284 -4.70101,9.99999 -10.5,9.99999l0,0c-5.79898,0 -10.49999,-4.47715 -10.49999,-9.99999zm5.25,0l0,0c0,2.76142 2.3505,4.99999 5.24999,4.99999c2.8995,0 5.25,-2.23857 5.25,-4.99999c0,-2.76142 -2.3505,-5 -5.25,-5l0,0c-2.89949,0 -5.24999,2.23858 -5.24999,5z" stroke-width="0" fill="#000000"/>
 </g>
</svg>